<?xml version="1.0" standalone="no"?>
<!-- Generator: Adobe Fireworks 10, Export SVG Extension by Aaron Beall (http://fireworks.abeall.com) . Version: 0.6.0  -->
<!DOCTYPE svg PUBLIC "-//W3C//DTD SVG 1.1//EN" "http://www.w3.org/Graphics/SVG/1.1/DTD/svg11.dtd">
<svg id="" viewBox="0 0 88 60" style="background-color:#ffffff00" version="1.1"
	xmlns="http://www.w3.org/2000/svg" xmlns:xlink="http://www.w3.org/1999/xlink" xml:space="preserve"
	x="0px" y="0px" width="88px" height="60px"
>
	<g id="Capa%201">
		<g visibility="hidden">
			<path d="M 43.1786 6.5946 L 43.1786 55.4048 C 43.1786 55.5982 42.9519 55.7544 42.6727 55.7544 C 42.3935 55.7544 42.1667 55.5982 42.1667 55.4048 L 42.1667 6.5946 C 42.1667 6.4014 42.3935 6.245 42.6727 6.245 C 42.9519 6.245 43.1786 6.4014 43.1786 6.5946 Z" stroke="#1f2565" stroke-width="1" fill="#00ffff"/>
			<path d="M 46.2143 6.5946 L 46.2143 55.4048 C 46.2143 55.5982 45.9876 55.7544 45.7084 55.7544 C 45.4292 55.7544 45.2025 55.5982 45.2025 55.4048 L 45.2025 6.5946 C 45.2025 6.4014 45.4292 6.245 45.7084 6.245 C 45.9876 6.245 46.2143 6.4014 46.2143 6.5946 Z" stroke="#1f2565" stroke-width="1" fill="#00ffff"/>
			<path d="M 60.3807 27.5704 L 60.3807 55.433 C 60.3807 55.6108 60.1539 55.7544 59.8748 55.7544 C 59.5955 55.7544 59.3688 55.6108 59.3688 55.433 L 59.3688 27.5704 C 59.3688 27.3928 59.5955 27.249 59.8748 27.249 C 60.1539 27.249 60.3807 27.3928 60.3807 27.5704 Z" stroke="#1f2565" stroke-width="1" fill="#00ffff"/>
			<path d="M 61.8986 27.5704 L 61.8986 55.433 C 61.8986 55.6108 61.6718 55.7544 61.3926 55.7544 C 61.1133 55.7544 60.8867 55.6108 60.8867 55.433 L 60.8867 27.5704 C 60.8867 27.3928 61.1133 27.249 61.3926 27.249 C 61.6718 27.249 61.8986 27.3928 61.8986 27.5704 Z" stroke="#1f2565" stroke-width="1" fill="#00ffff"/>
			<path d="M 44.6965 25.0982 L 44.6965 55.4048 C 44.6965 55.5982 44.4697 55.7544 44.1905 55.7544 C 43.9113 55.7544 43.6846 55.5982 43.6846 55.4048 L 43.6846 25.0982 C 43.6846 24.9049 43.9113 24.7485 44.1905 24.7485 C 44.4697 24.7485 44.6965 24.9049 44.6965 25.0982 Z" stroke="#1f2565" stroke-width="1" fill="#00ffff"/>
			<path d="M 63.9223 27.5704 L 63.9223 55.433 C 63.9223 55.6108 63.6956 55.7544 63.4163 55.7544 C 63.1371 55.7544 62.9105 55.6108 62.9105 55.433 L 62.9105 27.5704 C 62.9105 27.3928 63.1371 27.249 63.4163 27.249 C 63.6956 27.249 63.9223 27.3928 63.9223 27.5704 Z" stroke="#1f2565" stroke-width="1" fill="#00ffff"/>
			<path d="M 65.946 58.755 L 63.4163 55.2543 L 42.6727 55.2543 L 39.1311 58.755 L 65.946 58.755 Z" stroke="#1f2565" stroke-width="1" fill="#9598b6"/>
			<path d="M 59.3055 41.1607 L 48.0541 28.4197 " stroke="#1f2565" stroke-width="1" fill="none"/>
			<path d="M 59.0872 43.2123 L 45.9785 28.4197 " stroke="#1f2565" stroke-width="1" fill="none"/>
			<path d="M 59.524 46.4515 L 45.7601 30.6872 " stroke="#1f2565" stroke-width="1" fill="none"/>
			<rect x="74" y="28" width="11" height="6" stroke="#b4bed9" stroke-width="1" fill="#b4bed9" rx="1.1252" ry="1.1252"/>
			<rect x="45" y="45" width="15" height="3" stroke="#1f2565" stroke-width="1" fill="#1f2565"/>
			<rect x="46" y="47" width="14" height="6" stroke="#1f2565" stroke-width="1" fill="none"/>
			<path d="M 76.5708 27.249 L 46.2143 8.2454 " stroke="#1f2565" stroke-width="1" fill="none"/>
			<path d="M 76.0649 28.2492 L 45.7084 9.2456 " stroke="#1f2565" stroke-width="1" fill="none"/>
			<path d="M 60.3807 19.2475 L 46.2143 26.2488 " stroke="#1f2565" stroke-width="1" fill="none"/>
			<path d="M 61.3926 20.2477 L 47.2262 27.249 " stroke="#1f2565" stroke-width="1" fill="none"/>
			<rect x="45" y="24" width="23" height="2" stroke="#1f2565" stroke-width="1" fill="#1f2565"/>
			<path d="M 63.4163 22.248 L 59.3688 22.248 L 59.3688 27.249 L 71.5115 27.249 L 63.4163 22.248 Z" stroke="#1f2565" stroke-width="1" fill="#9598b6"/>
			<path d="M 42.1667 7.7453 C 42.1667 7.7453 29.7943 18.3041 8.7745 27.249 " stroke="#1f2565" stroke-width="1" fill="none"/>
			<path d="M 43.1786 8.7455 C 43.1786 8.7455 33.1345 18.2871 12.1149 27.232 " stroke="#1f2565" stroke-width="1" fill="none"/>
			<path d="M 43.1786 11.746 C 43.1786 11.746 32.8297 23.0066 28.6786 27.6495 " stroke="#1f2565" stroke-width="1" fill="none"/>
			<path d="M 40.0211 12.2461 C 40.0211 12.2461 29.0571 23.3868 24.9061 28.0298 " stroke="#1f2565" stroke-width="1" fill="none"/>
			<path d="M 6.1942 27.3923 L 81.9844 27.3923 C 82.1803 27.3923 82.3386 27.5507 82.3386 27.7457 C 82.3386 27.9408 82.1803 28.0991 81.9844 28.0991 L 6.1942 28.0991 C 5.9984 28.0991 5.84 27.9408 5.84 27.7457 C 5.84 27.5507 5.9984 27.3923 6.1942 27.3923 Z" stroke="#1f2565" stroke-width="1" fill="#1f2565"/>
		</g>
		<g visibility="hidden">
			<path id="Elipse" d="M 39.9717 21.5652 C 39.9717 19.5962 41.5935 18 43.5944 18 C 45.5952 18 47.217 19.5962 47.217 21.5652 C 47.217 23.5343 45.5952 25.1304 43.5944 25.1304 C 41.5935 25.1304 39.9717 23.5343 39.9717 21.5652 Z" stroke="#1f2565" stroke-width="2" fill="none"/>
			<path id="Elipse2" d="M 57.632 45.6304 C 57.632 43.6614 59.2538 42.0652 61.2547 42.0652 C 63.2555 42.0652 64.8773 43.6614 64.8773 45.6304 C 64.8773 47.5995 63.2555 49.1956 61.2547 49.1956 C 59.2538 49.1956 57.632 47.5995 57.632 45.6304 Z" stroke="#1f2565" stroke-width="2" fill="none"/>
			<path id="Elipse3" d="M 23.217 45.6304 C 23.217 43.6614 24.8389 42.0652 26.8397 42.0652 C 28.8404 42.0652 30.4622 43.6614 30.4622 45.6304 C 30.4622 47.5995 28.8404 49.1956 26.8397 49.1956 C 24.8389 49.1956 23.217 47.5995 23.217 45.6304 Z" stroke="#1f2565" stroke-width="2" fill="none"/>
			<path opacity="0.502" d="M 22.8973 53.6522 L 31.6877 53.6522 L 34.0849 59 L 20.5 59 L 22.8973 53.6522 Z" stroke="#1f2565" stroke-width="2" fill="#1f2565"/>
			<path opacity="0.502" d="M 57.3123 53.6522 L 66.1027 53.6522 L 68.5 59 L 54.9151 59 L 57.3123 53.6522 Z" stroke="#1f2565" stroke-width="2" fill="#1f2565"/>
			<path opacity="0.502" d="M 39.1992 29.587 L 47.9895 29.587 L 50.3868 34.9348 L 36.8019 34.9348 L 39.1992 29.587 Z" stroke="#1f2565" stroke-width="2" fill="#1f2565"/>
			<g>
				<path d="M 37.7076 54.5435 L 44.1765 48.0072 " stroke="#1f2565" stroke-width="1" fill="none"/>
				<path d="M 51.2924 54.5435 L 44.1765 48.6015 " stroke="#1f2565" stroke-width="1" fill="none"/>
				<path d="M 44.1765 48.0072 L 44.1765 40.2826 " stroke="#1f2565" stroke-width="1" fill="none"/>
			</g>
		</g>
		<g visibility="hidden">
			<g>
				<g>
					<path d="M 25.6382 53.8438 L 2.3029 34.1936 C 2.3029 34.1936 4.5296 32.6853 8.4799 32.4698 C 12.4302 32.2544 23.5792 32.1251 23.5792 32.1251 C 23.5792 32.1251 29.6197 26.9344 32.5015 25.575 C 35.3833 24.2156 45.8303 19.1738 50.3461 18.6802 C 54.8619 18.1865 59.2685 18.3354 59.2685 18.3354 L 83.6332 40.0542 C 83.6332 40.0542 86.6243 44.8766 86.3785 46.6043 C 86.1329 48.3319 86.0354 49.0175 86.0354 49.0175 L 25.6382 53.8438 Z" stroke="#1f2565" stroke-width="2" fill="none"/>
					<rect x="52" y="23" width="2" height="3" fill="#202761"/>
					<rect x="51" y="23" width="2" height="3" fill="#202761"/>
					<rect x="49" y="23" width="2" height="3" fill="#202761"/>
					<rect x="46" y="24" width="3" height="2" fill="#202761"/>
					<rect x="45" y="23" width="2" height="3" fill="#202761"/>
					<rect x="43" y="24" width="2" height="2" fill="#202761"/>
					<rect x="42" y="24" width="2" height="2" fill="#202761"/>
					<rect x="41" y="24" width="2" height="2" fill="#202761"/>
					<rect x="39" y="24" width="2" height="2" fill="#202761"/>
					<rect x="38" y="24" width="2" height="3" fill="#202761"/>
					<rect x="36" y="24" width="2" height="3" fill="#202761"/>
					<rect x="35" y="24" width="2" height="3" fill="#202761"/>
					<rect x="34" y="25" width="2" height="3" fill="#202761"/>
					<rect x="32" y="25" width="2" height="3" fill="#202761"/>
					<rect x="31" y="26" width="2" height="2" fill="#202761"/>
					<rect x="30" y="26" width="2" height="3" fill="#202761"/>
					<path d="M 57.8958 22.1276 L 81.2311 39.02 L 55.1505 22.1276 L 55.4937 25.2303 L 82.947 41.0884 L 54.4641 26.6092 L 54.4641 29.0224 L 83.6332 43.1568 L 49.6598 29.0224 L 50.003 30.7461 L 83.6332 43.8464 " stroke="#1f2565" stroke-width="1" fill="none"/>
					<path d="M 25.6382 31.7804 C 25.6382 31.7804 40.996 29.1892 47.2576 31.0909 C 53.5193 32.9925 83.9764 44.8806 83.9764 44.8806 " stroke="#1f2565" stroke-width="1" fill="none"/>
					<path d="M 39.8133 38.7931 C 40.1247 38.2965 41.5292 35.6905 41.5292 35.6905 L 43.5881 35.6905 L 42.5587 38.7931 C 42.5587 38.7931 39.5019 39.2897 39.8133 38.7931 Z" fill="#697db4"/>
					<path d="M 53.7557 28.2929 C 53.7557 28.2929 41.3945 27.3539 27.5477 29.5214 " stroke="#1f2565" stroke-width="1" fill="none"/>
				</g>
				<path d="M 36.5618 53.0909 L 85.3443 50.5693 " stroke="#1f2565" stroke-width="2" fill="none"/>
				<path d="M 46.3848 36.3489 L 82.3768 46.0509 " stroke="#1f2565" stroke-width="2" fill="none"/>
				<path d="M 49.5219 19.7219 L 58.7025 19.9204 L 53.4919 23.0468 L 39.5967 23.4934 L 49.5219 19.7219 Z" fill="#697db4"/>
				<path opacity="0.502" d="M 4.0063 34.8226 C 25.1617 32.1789 62.4939 50.2141 62.4939 50.2141 L 35.6898 52.0029 L 26.1464 52.1084 L 4.0063 34.8226 Z" fill="#697db4"/>
				<path d="M 29.2579 56.1357 L 11.3938 56.1357 C 11.0532 56.1357 10.7779 56.4142 10.7779 56.7576 C 10.7779 57.1008 11.0532 57.3793 11.3938 57.3793 L 29.2579 57.3793 C 29.5986 57.3793 29.8735 57.1008 29.8735 56.7576 C 29.8735 56.4142 29.5986 56.1357 29.2579 56.1357 Z" fill="#1f2565"/>
				<path d="M 21.6898 53.3431 L 13.0659 53.3431 C 12.725 53.3431 12.4498 53.6217 12.4498 53.965 C 12.4498 54.3082 12.725 54.5868 13.0659 54.5868 L 21.6898 54.5868 C 22.0303 54.5868 22.3059 54.3082 22.3059 53.965 C 22.3059 53.6217 22.0303 53.3431 21.6898 53.3431 Z" fill="#1f2565"/>
			</g>
			<path d="M 34.8898 58.6231 L 26.2659 58.6231 C 25.925 58.6231 25.6498 58.9017 25.6498 59.245 C 25.6498 59.5882 25.925 59.8668 26.2659 59.8668 L 34.8898 59.8668 C 35.2303 59.8668 35.5059 59.5882 35.5059 59.245 C 35.5059 58.9017 35.2303 58.6231 34.8898 58.6231 Z" fill="#1f2565"/>
		</g>
		<g>
			<path d="M 42.6078 12.7128 L 43.6674 10.1506 L 44.7098 9.8031 L 45.4048 10.2374 L 47.1491 12.7128 C 47.1491 12.7128 44.9817 11.2455 42.6078 12.7128 Z" stroke="#697db4" stroke-width="1" fill="#697db4"/>
			<path d="M 42.6078 11.1991 L 43.6674 8.6368 L 44.7098 8.2893 L 45.4048 8.7236 L 47.1491 11.1991 C 47.1491 11.1991 44.9817 9.7317 42.6078 11.1991 Z" stroke="#697db4" stroke-width="1" fill="#1f2565"/>
			<path d="M 50.1768 42.2319 L 72.8837 46.0164 " stroke="#697db4" stroke-width="1" fill="none"/>
			<path d="M 39.5801 42.2319 L 22.1714 46.7734 " stroke="#697db4" stroke-width="1" fill="none"/>
			<rect x="53" y="52" width="3" height="7" fill="#1f2565"/>
			<rect x="49" y="51" width="2" height="7" fill="#1f2565"/>
			<rect x="46" y="42" width="2" height="7" fill="#1f2565"/>
			<path d="M 45.6353 24.8232 L 47.906 25.5802 L 47.906 27.8509 L 45.6353 27.0939 L 45.6353 24.8232 Z" fill="#697db4"/>
			<rect x="46" y="36" width="2" height="4" fill="#697db4"/>
			<rect x="46" y="49" width="2" height="4" fill="#697db4"/>
			<rect x="41" y="42" width="3" height="7" fill="#1f2565"/>
			<path d="M 41.8509 25.5802 L 43.3647 24.8232 L 43.3647 27.0939 L 41.8509 27.8509 L 41.8509 25.5802 Z" fill="#697db4"/>
			<rect x="41" y="36" width="3" height="4" fill="#697db4"/>
			<rect x="53" y="45" width="3" height="5" fill="#1f2565"/>
			<rect x="49" y="44" width="2" height="5" fill="#1f2565"/>
			<rect x="63" y="52" width="2" height="7" fill="#1f2565"/>
			<rect x="63" y="46" width="2" height="4" fill="#1f2565"/>
			<rect x="59" y="52" width="2" height="7" fill="#1f2565"/>
			<rect x="59" y="45" width="2" height="5" fill="#1f2565"/>
			<rect x="66" y="52" width="3" height="7" fill="#1f2565"/>
			<rect x="66" y="46" width="3" height="4" fill="#1f2565"/>
			<rect x="70" y="53" width="3" height="6" fill="#1f2565"/>
			<rect x="70" y="46" width="3" height="4" fill="#1f2565"/>
			<g>
				<rect x="34" y="52" width="2" height="7" fill="#1f2565"/>
				<rect x="38" y="51" width="3" height="7" fill="#1f2565"/>
				<rect x="34" y="45" width="2" height="5" fill="#1f2565"/>
				<rect x="38" y="44" width="3" height="5" fill="#1f2565"/>
				<rect x="25" y="52" width="2" height="7" fill="#1f2565"/>
				<rect x="25" y="46" width="2" height="4" fill="#1f2565"/>
				<rect x="28" y="52" width="3" height="7" fill="#1f2565"/>
				<rect x="28" y="45" width="3" height="5" fill="#1f2565"/>
				<rect x="21" y="52" width="2" height="7" fill="#1f2565"/>
				<rect x="21" y="46" width="2" height="4" fill="#1f2565"/>
				<rect x="17" y="53" width="3" height="6" fill="#1f2565"/>
				<rect x="17" y="46" width="3" height="4" fill="#1f2565"/>
			</g>
			<path d="M 44.8784 58.8838 L 14.6025 57.37 L 13.8456 44.5026 C 13.8456 44.5026 16.7725 39.5863 21.4146 40.7181 C 30.7631 37.2906 40.3371 33.1491 40.3371 33.1491 L 40.3371 25.5802 L 38.8232 21.7957 L 38.8232 15.7405 L 42.6078 11.9559 L 42.6078 7.4145 L 45.6353 2.1162 L 45.6353 6.6576 " stroke="#1f4478" stroke-width="2" fill="none"/>
			<path d="M 44.8784 58.8838 L 75.1544 57.37 L 73.6406 40.7181 L 49.4199 33.1491 L 49.4199 25.5802 L 50.9337 21.7957 L 50.1768 20.4711 L 50.1768 16.7812 L 50.9337 15.7405 L 47.1491 11.9559 L 47.1491 7.4145 L 44.1216 2.1162 L 44.1216 6.6576 " stroke="#1f4478" stroke-width="2" fill="none"/>
			<path d="M 44.1216 8.9284 L 44.1216 58.1269 " stroke="#697db4" stroke-width="1" fill="none"/>
			<path d="M 22.1714 41.2385 L 22.1714 58.1269 " stroke="#212767" stroke-width="1" fill="none"/>
			<path d="M 39.5801 23.3094 L 44.8784 21.7957 L 50.1768 23.3094 " stroke="#1f4478" stroke-width="2" fill="none"/>
			<path id="Elipse4" d="M 45.8508 17.3663 C 45.8508 16.2528 46.8685 15.6421 47.2568 15.7534 C 47.6451 15.8648 48.6629 17.0593 48.6629 18.1727 C 48.6629 19.2862 47.6451 19.8969 47.2568 19.7856 C 46.8685 19.6742 45.8508 18.4797 45.8508 17.3663 Z" stroke="#1f2565" stroke-width="1" fill="none"/>
			<path id="Elipse5" d="M 40.3371 19.0199 C 40.3371 17.919 41.3434 16.4493 41.7273 16.2291 C 42.1113 16.0089 43.1176 16.3242 43.1176 17.4252 C 43.1176 18.5261 42.1113 19.9958 41.7273 20.216 C 41.3434 20.4362 40.3371 20.1209 40.3371 19.0199 Z" stroke="#1f2565" stroke-width="1" fill="none"/>
			<path d="M 14.6025 45.2595 L 22.1714 44.5026 L 40.3371 38.4475 L 40.3371 33.9061 C 40.3371 33.9061 23.7084 40.8988 22.9283 40.7181 C 22.1483 40.5375 18.387 40.7181 18.387 40.7181 L 14.6025 45.2595 Z" stroke="#1f4478" stroke-width="2" fill="#212767"/>
			<path d="M 27.4697 44.5026 L 25.9559 42.2319 L 25.199 44.5026 L 27.4697 44.5026 Z" stroke="#697db4" stroke-width="1" fill="#697db4"/>
			<path d="M 19.9008 45.2595 L 18.387 42.9889 L 17.6301 45.2595 L 19.9008 45.2595 Z" stroke="#697db4" stroke-width="1" fill="#697db4"/>
			<path d="M 31.2543 42.9889 L 29.7404 40.7181 L 28.9835 42.9889 L 31.2543 42.9889 Z" stroke="#697db4" stroke-width="1" fill="#697db4"/>
			<path d="M 35.7957 41.475 L 34.2819 39.2044 L 33.525 41.475 L 35.7957 41.475 Z" stroke="#697db4" stroke-width="1" fill="#697db4"/>
			<path d="M 39.5801 39.9613 L 38.0663 37.6906 L 37.3094 39.9613 L 39.5801 39.9613 Z" stroke="#697db4" stroke-width="1" fill="#697db4"/>
			<path d="M 50.1768 38.4475 L 50.1768 33.9061 L 70.613 39.9613 L 72.1268 42.9889 L 50.1768 38.4475 Z" stroke="#1f4478" stroke-width="2" fill="#212767"/>
			<path d="M 40.3371 24.0664 L 40.3371 58.1269 " stroke="#1f4478" stroke-width="2" fill="none"/>
			<path d="M 52.4474 39.9613 L 50.9337 37.6906 L 50.1768 39.9613 L 52.4474 39.9613 Z" stroke="#697db4" stroke-width="1" fill="#697db4"/>
			<path d="M 49.4199 23.3094 L 49.4199 58.1269 " stroke="#212767" stroke-width="2" fill="none"/>
			<path d="M 56.2319 40.7181 L 54.7181 38.4475 L 53.9612 40.7181 L 56.2319 40.7181 Z" stroke="#697db4" stroke-width="1" fill="#697db4"/>
			<path d="M 60.0165 41.475 L 58.5026 39.2044 L 57.7457 41.475 L 60.0165 41.475 Z" stroke="#697db4" stroke-width="1" fill="#697db4"/>
			<path d="M 63.801 42.2319 L 62.2872 39.9613 L 61.5303 42.2319 L 63.801 42.2319 Z" stroke="#697db4" stroke-width="1" fill="#697db4"/>
			<path d="M 67.5854 42.9889 L 66.0717 40.7181 L 65.3148 42.9889 L 67.5854 42.9889 Z" stroke="#697db4" stroke-width="1" fill="#697db4"/>
			<path d="M 71.3699 43.7458 L 69.8561 41.475 L 69.0992 43.7458 L 71.3699 43.7458 Z" stroke="#697db4" stroke-width="1" fill="#697db4"/>
			<path d="M 41.094 58.1269 L 41.5938 54.8897 L 45.1453 55.1629 L 48.5601 54.8897 L 48.4979 57.9514 L 44.9679 58.5088 L 41.094 58.1269 Z" fill="#697db4"/>
			<path d="M 16.8732 51.3148 L 19.9008 51.3148 " stroke="#697db4" stroke-width="1" fill="none"/>
			<path d="M 23.6852 50.5578 L 26.7128 50.5578 " stroke="#697db4" stroke-width="1" fill="none"/>
			<path d="M 27.4697 49.8009 L 30.4974 49.8009 " stroke="#697db4" stroke-width="1" fill="none"/>
			<path d="M 32.7681 49.8009 L 35.7957 49.8009 " stroke="#697db4" stroke-width="1" fill="none"/>
			<path d="M 53.2043 49.8009 L 56.2319 49.8009 " stroke="#697db4" stroke-width="1" fill="none"/>
			<path d="M 58.5026 50.5578 L 61.5303 50.5578 " stroke="#697db4" stroke-width="1" fill="none"/>
			<path d="M 61.5303 50.5578 L 64.5579 50.5578 " stroke="#697db4" stroke-width="1" fill="none"/>
			<path d="M 66.0717 51.3148 L 69.0992 51.3148 " stroke="#697db4" stroke-width="1" fill="none"/>
			<path d="M 69.0992 51.3148 L 72.1268 51.3148 " stroke="#697db4" stroke-width="1" fill="none"/>
		</g>
		<g visibility="hidden">
			<rect opacity="0.502" x="26" y="29" width="12" height="15" fill="#b4bed9"/>
			<path opacity="0.502" d="M 39 37 L 56 43 L 56 51 L 46 44 L 39 42 L 39 37 Z" fill="#b4bed9"/>
			<g>
				<path d="M 65.1913 27.0065 C 64.8218 26.4734 64.0886 26.3392 63.5536 26.7067 C 63.0183 27.0744 62.8833 27.8044 63.2524 28.3376 C 64.8179 30.5987 65.645 33.3258 65.645 36.2243 C 65.645 39.1119 64.7797 41.9355 63.2087 44.1753 C 62.8363 44.7058 62.9666 45.4372 63.4995 45.8081 C 63.7048 45.9507 63.9403 46.0197 64.1729 46.0197 C 64.5446 46.0197 64.9102 45.8446 65.1392 45.5185 C 67.011 42.8507 68 39.6366 68 36.2245 C 68 32.8484 67.0284 29.6609 65.1913 27.0065 Z" stroke="#ffffff" stroke-width="1" fill="#1f2565"/>
				<path d="M 61.3217 30.3194 C 60.9525 29.7862 60.2194 29.652 59.6841 30.0195 C 59.1487 30.3871 59.014 31.1173 59.3832 31.6504 C 60.2919 32.9633 60.7725 34.5496 60.7725 36.2377 C 60.7725 37.9196 60.2699 39.5621 59.3579 40.8625 C 58.9855 41.3933 59.1154 42.1244 59.6487 42.4953 C 59.854 42.6379 60.0891 42.7066 60.3217 42.7066 C 60.6935 42.7066 61.0591 42.5321 61.2881 42.2057 C 62.4915 40.4906 63.1271 38.4267 63.1271 36.2377 C 63.1271 34.0719 62.5028 32.0255 61.3217 30.3194 Z" stroke="#ffffff" stroke-width="1" fill="#1f2565"/>
				<path d="M 56.6779 18 C 56.0942 18 55.5553 18.3233 55.078 18.9577 C 55.0394 19.0083 51.1057 24.0492 41.2903 27.0631 C 40.3584 27.3491 39.3284 27.5512 39.3184 27.5531 C 39.0854 27.5984 38.8606 27.6708 38.6464 27.7665 C 38.2333 27.0876 37.4867 26.6314 36.6331 26.6314 L 26.7262 26.6314 C 25.4277 26.6314 24.3713 27.6834 24.3713 28.9765 L 24.3713 30.2638 C 24.2064 30.238 24.0365 30.2236 23.863 30.2236 C 22.2843 30.2236 21 31.3406 21 32.7134 L 21 39.1961 C 21 40.569 22.2843 41.6858 23.863 41.6858 C 24.0365 41.6858 24.2062 41.6716 24.3713 41.6458 L 24.3713 42.6985 C 24.3713 43.9918 25.4276 45.0438 26.7261 45.0438 L 27.0443 45.0438 L 30.0341 57.3925 C 30.3882 58.8548 31.8484 60 33.3586 60 L 36.5226 60 C 37.3488 60 38.0962 59.654 38.5734 59.0509 C 39.0505 58.4475 39.2131 57.6428 39.0194 56.843 L 36.1628 45.0438 L 36.6329 45.0438 C 37.4868 45.0438 38.2338 44.5871 38.6467 43.9079 C 38.8606 44.0034 39.0852 44.0756 39.3175 44.1211 C 39.3279 44.123 40.3579 44.3252 41.2894 44.6116 C 51.1057 47.6316 55.0392 52.6678 55.0754 52.7149 C 55.5551 53.3522 56.0939 53.6753 56.6771 53.6753 L 56.6771 53.6753 C 57.2535 53.6753 57.7578 53.3496 58.0256 52.8046 C 58.1794 52.4917 58.2543 52.1173 58.2543 51.6597 L 58.2543 20.0152 C 58.2543 18.0566 56.8391 18 56.6779 18 ZM 23.863 39.3409 C 23.5731 39.3409 23.3997 39.2212 23.3549 39.165 L 23.3549 32.7445 C 23.3998 32.6882 23.5731 32.5686 23.863 32.5686 C 24.153 32.5686 24.3263 32.6882 24.3713 32.7445 L 24.3713 39.165 C 24.3263 39.2212 24.153 39.3409 23.863 39.3409 ZM 36.7302 57.3925 C 36.7556 57.4977 36.7451 57.5722 36.7234 57.5996 C 36.7015 57.6273 36.6312 57.6551 36.5226 57.6551 L 33.3586 57.6551 C 32.9275 57.6551 32.4243 57.2603 32.3234 56.843 L 29.4667 45.0438 L 33.7406 45.0438 L 36.7302 57.3925 ZM 26.7262 42.6985 L 26.7262 39.1961 L 26.7262 32.7134 L 26.7262 28.9765 L 36.6332 28.9765 L 36.6332 30.7985 C 36.6332 30.799 36.6332 30.7993 36.6332 30.7998 L 36.6332 40.8744 C 36.6332 40.877 36.6334 40.8796 36.6334 40.8825 L 36.6334 42.6985 L 26.7262 42.6985 ZM 55.8997 50.1342 C 54.0651 48.3069 49.7391 44.7567 41.9845 42.3715 C 40.9299 42.0467 39.8164 41.8287 39.7697 41.8194 C 39.3677 41.7413 38.9879 41.2821 38.9879 40.8741 L 38.9879 30.7996 C 38.9879 30.392 39.3677 29.9326 39.7694 29.8545 C 39.8164 29.8453 40.9294 29.6276 41.984 29.3038 C 49.7375 26.9233 54.0643 23.372 55.8997 21.5427 L 55.8997 50.1342 Z" stroke="#ffffff" stroke-width="1" fill="#1f2565"/>
			</g>
		</g>
	</g>
</svg>