<?xml version="1.0" encoding="utf-8"?>
<!-- Generator: Adobe Illustrator 16.0.0, SVG Export Plug-In . SVG Version: 6.00 Build 0)  -->
<!DOCTYPE svg PUBLIC "-//W3C//DTD SVG 1.1//EN" "http://www.w3.org/Graphics/SVG/1.1/DTD/svg11.dtd">
<svg version="1.1" id="Capa_1" xmlns="http://www.w3.org/2000/svg" xmlns:xlink="http://www.w3.org/1999/xlink" x="0px" y="0px"
	 width="88px" height="60px" viewBox="0 0 88 60" enable-background="new 0 0 88 60" xml:space="preserve">
<path fill="none" d="z"/>
<g id="Capa_x25_201">
	<g>
		<path display="none" fill="#00FFFF" stroke="#1F2565" d="M43.179,6.595v48.81c0,0.193-0.227,0.35-0.506,0.35
			c-0.279,0-0.506-0.156-0.506-0.35V6.595c0-0.193,0.227-0.35,0.506-0.35C42.952,6.245,43.179,6.401,43.179,6.595z"/>
		<path display="none" fill="#00FFFF" stroke="#1F2565" d="M46.215,6.595v48.81c0,0.193-0.227,0.35-0.506,0.35
			s-0.506-0.156-0.506-0.35V6.595c0-0.193,0.227-0.35,0.506-0.35S46.215,6.401,46.215,6.595z"/>
		<path display="none" fill="#00FFFF" stroke="#1F2565" d="M60.381,27.57v27.863c0,0.178-0.227,0.32-0.506,0.32
			s-0.506-0.143-0.506-0.32V27.57c0-0.178,0.227-0.321,0.506-0.321S60.381,27.393,60.381,27.57z"/>
		<path display="none" fill="#00FFFF" stroke="#1F2565" d="M61.898,27.57v27.863c0,0.178-0.227,0.32-0.506,0.32
			s-0.506-0.143-0.506-0.32V27.57c0-0.178,0.227-0.321,0.506-0.321S61.898,27.393,61.898,27.57z"/>
		<path display="none" fill="#00FFFF" stroke="#1F2565" d="M44.696,25.098v30.306c0,0.193-0.227,0.35-0.506,0.35
			s-0.506-0.156-0.506-0.35V25.098c0-0.193,0.227-0.35,0.506-0.35S44.696,24.905,44.696,25.098z"/>
		<path display="none" fill="#00FFFF" stroke="#1F2565" d="M63.922,27.57v27.863c0,0.178-0.227,0.32-0.506,0.32
			s-0.506-0.143-0.506-0.32V27.57c0-0.178,0.227-0.321,0.506-0.321S63.922,27.393,63.922,27.57z"/>
		<path display="none" fill="#9598B6" stroke="#1F2565" d="M65.945,58.755l-2.529-3.501H42.673l-3.542,3.501H65.945z"/>
		<path display="none" fill="none" stroke="#1F2565" d="M59.306,41.16L48.055,28.42"/>
		<path display="none" fill="none" stroke="#1F2565" d="M59.088,43.213L45.979,28.42"/>
		<path display="none" fill="none" stroke="#1F2565" d="M59.523,46.451L45.76,30.688"/>
		<path display="none" fill="#B4BED9" stroke="#B4BED9" d="M75.125,28h8.75C84.496,28,85,28.504,85,29.125v3.75
			C85,33.496,84.496,34,83.875,34h-8.75C74.504,34,74,33.496,74,32.875v-3.75C74,28.504,74.504,28,75.125,28z"/>
		<rect x="45" y="45" display="none" fill="#1F2565" stroke="#1F2565" width="15" height="3"/>
		<rect x="46" y="47" display="none" fill="none" stroke="#1F2565" width="14" height="6"/>
		<path display="none" fill="none" stroke="#1F2565" d="M76.57,27.249L46.215,8.246"/>
		<path display="none" fill="none" stroke="#1F2565" d="M76.064,28.249L45.709,9.246"/>
		<path display="none" fill="none" stroke="#1F2565" d="M60.381,19.248l-14.166,7.001"/>
		<path display="none" fill="none" stroke="#1F2565" d="M61.393,20.248l-14.166,7.001"/>
		<rect x="45" y="24" display="none" fill="#1F2565" stroke="#1F2565" width="23" height="2"/>
		<path display="none" fill="#9598B6" stroke="#1F2565" d="M63.416,22.248h-4.047v5.001h12.143L63.416,22.248z"/>
		<path display="none" fill="none" stroke="#1F2565" d="M42.167,7.745c0,0-12.372,10.559-33.392,19.504"/>
		<path display="none" fill="none" stroke="#1F2565" d="M43.179,8.746c0,0-10.044,9.542-31.064,18.486"/>
		<path display="none" fill="none" stroke="#1F2565" d="M43.179,11.746c0,0-10.349,11.261-14.5,15.903"/>
		<path display="none" fill="none" stroke="#1F2565" d="M40.021,12.246c0,0-10.964,11.141-15.115,15.784"/>
		<path display="none" fill="#1F2565" stroke="#1F2565" d="M6.194,27.392h75.79c0.195,0,0.354,0.159,0.354,0.354
			c0,0.195-0.158,0.354-0.354,0.354H6.194c-0.196,0-0.354-0.158-0.354-0.354C5.84,27.551,5.999,27.392,6.194,27.392z"/>
	</g>
	<g>
		<path id="Elipse" display="none" fill="none" stroke="#1F2565" stroke-width="2" d="M39.972,21.565
			c0-1.969,1.622-3.565,3.623-3.565c2.001,0,3.623,1.596,3.623,3.565c0,1.969-1.621,3.565-3.623,3.565
			C41.593,25.13,39.972,23.534,39.972,21.565z"/>
		<path id="Elipse2" display="none" fill="none" stroke="#1F2565" stroke-width="2" d="M57.632,45.631
			c0-1.97,1.622-3.565,3.623-3.565s3.622,1.596,3.622,3.565c0,1.969-1.621,3.564-3.622,3.564S57.632,47.6,57.632,45.631z"/>
		<path id="Elipse3" display="none" fill="none" stroke="#1F2565" stroke-width="2" d="M23.217,45.631
			c0-1.97,1.622-3.565,3.623-3.565c2,0,3.623,1.596,3.623,3.565c0,1.969-1.622,3.564-3.623,3.564
			C24.839,49.195,23.217,47.6,23.217,45.631z"/>
		<path display="none" opacity="0.502" fill="#1F2565" stroke="#1F2565" stroke-width="2" enable-background="new    " d="
			M22.897,53.652h8.79L34.085,59H20.5L22.897,53.652z"/>
		<path display="none" opacity="0.502" fill="#1F2565" stroke="#1F2565" stroke-width="2" enable-background="new    " d="
			M57.313,53.652h8.79L68.5,59H54.915L57.313,53.652z"/>
		<path display="none" opacity="0.502" fill="#1F2565" stroke="#1F2565" stroke-width="2" enable-background="new    " d="
			M39.199,29.587h8.79l2.397,5.348H36.802L39.199,29.587z"/>
		<g>
			<path display="none" fill="none" stroke="#1F2565" d="M37.708,54.543l6.469-6.535"/>
			<path display="none" fill="none" stroke="#1F2565" d="M51.293,54.543l-7.117-5.941"/>
			<path display="none" fill="none" stroke="#1F2565" d="M44.176,48.008v-7.725"/>
		</g>
	</g>
	<g>
		<g>
			<g>
				<path display="none" fill="none" stroke="#1F2565" stroke-width="2" d="M25.638,53.844L2.303,34.193
					c0,0,2.227-1.508,6.177-1.724s15.099-0.345,15.099-0.345s6.041-5.19,8.922-6.55s13.329-6.401,17.844-6.895
					s8.923-0.345,8.923-0.345l24.364,21.719c0,0,2.992,4.822,2.746,6.55s-0.344,2.413-0.344,2.413L25.638,53.844z"/>
				<rect x="52" y="23" display="none" fill="#202761" width="2" height="3"/>
				<rect x="51" y="23" display="none" fill="#202761" width="2" height="3"/>
				<rect x="49" y="23" display="none" fill="#202761" width="2" height="3"/>
				<rect x="46" y="24" display="none" fill="#202761" width="3" height="2"/>
				<rect x="45" y="23" display="none" fill="#202761" width="2" height="3"/>
				<rect x="43" y="24" display="none" fill="#202761" width="2" height="2"/>
				<rect x="42" y="24" display="none" fill="#202761" width="2" height="2"/>
				<rect x="41" y="24" display="none" fill="#202761" width="2" height="2"/>
				<rect x="39" y="24" display="none" fill="#202761" width="2" height="2"/>
				<rect x="38" y="24" display="none" fill="#202761" width="2" height="3"/>
				<rect x="36" y="24" display="none" fill="#202761" width="2" height="3"/>
				<rect x="35" y="24" display="none" fill="#202761" width="2" height="3"/>
				<rect x="34" y="25" display="none" fill="#202761" width="2" height="3"/>
				<rect x="32" y="25" display="none" fill="#202761" width="2" height="3"/>
				<rect x="31" y="26" display="none" fill="#202761" width="2" height="2"/>
				<rect x="30" y="26" display="none" fill="#202761" width="2" height="3"/>
				<path display="none" fill="none" stroke="#1F2565" d="M57.896,22.127L81.23,39.02L55.15,22.127l0.344,3.103l27.453,15.857
					L54.464,26.609v2.413l29.169,14.134L49.66,29.022l0.343,1.724l33.63,13.1"/>
				<path display="none" fill="none" stroke="#1F2565" d="M25.638,31.78c0,0,15.358-2.591,21.62-0.689s36.719,13.79,36.719,13.79"/>
				<path display="none" fill="#697DB4" d="M39.813,38.793c0.311-0.496,1.716-3.103,1.716-3.103h2.059l-1.029,3.103
					C42.559,38.793,39.502,39.289,39.813,38.793z"/>
				<path display="none" fill="none" stroke="#1F2565" d="M53.756,28.293c0,0-12.361-0.939-26.208,1.229"/>
			</g>
			<path display="none" fill="none" stroke="#1F2565" stroke-width="2" d="M36.562,53.091l48.782-2.521"/>
			<path display="none" fill="none" stroke="#1F2565" stroke-width="2" d="M46.385,36.349l35.992,9.702"/>
			<path display="none" fill="#697DB4" d="M49.521,19.722l9.182,0.199l-5.211,3.126l-13.896,0.446L49.521,19.722z"/>
			<path display="none" opacity="0.502" fill="#697DB4" enable-background="new    " d="M4.006,34.822
				c21.155-2.644,58.488,15.392,58.488,15.392L35.69,52.003l-9.543,0.105L4.006,34.822z"/>
			<path display="none" fill="#1F2565" d="M29.258,56.136H11.394c-0.341,0-0.616,0.278-0.616,0.622c0,0.343,0.275,0.621,0.616,0.621
				h17.864c0.341,0,0.616-0.278,0.616-0.621C29.874,56.414,29.599,56.136,29.258,56.136z"/>
			<path display="none" fill="#1F2565" d="M21.69,53.344h-8.624c-0.341,0-0.616,0.277-0.616,0.621s0.275,0.622,0.616,0.622h8.624
				c0.34,0,0.616-0.278,0.616-0.622S22.03,53.344,21.69,53.344z"/>
		</g>
		<path display="none" fill="#1F2565" d="M34.89,58.623h-8.624c-0.341,0-0.616,0.279-0.616,0.622s0.275,0.622,0.616,0.622h8.624
			c0.341,0,0.616-0.279,0.616-0.622S35.23,58.623,34.89,58.623z"/>
	</g>
	<g>
		<path display="none" fill="#697DB4" stroke="#697DB4" d="M42.608,12.713l1.06-2.563l1.042-0.347l0.694,0.434l1.744,2.476
			C47.148,12.713,44.982,11.246,42.608,12.713z"/>
		<path display="none" fill="#1F2565" stroke="#697DB4" d="M42.608,11.199l1.06-2.563l1.042-0.348l0.694,0.435l1.744,2.476
			C47.148,11.199,44.982,9.731,42.608,11.199z"/>
		<path display="none" fill="none" stroke="#697DB4" d="M50.177,42.232l22.707,3.784"/>
		<path display="none" fill="none" stroke="#697DB4" d="M39.58,42.232l-17.409,4.541"/>
		<rect x="53" y="52" display="none" fill="#1F2565" width="3" height="7"/>
		<rect x="49" y="51" display="none" fill="#1F2565" width="2" height="7"/>
		<rect x="46" y="42" display="none" fill="#1F2565" width="2" height="7"/>
		<path display="none" fill="#697DB4" d="M45.635,24.823l2.271,0.757v2.271l-2.271-0.757V24.823z"/>
		<rect x="46" y="36" display="none" fill="#697DB4" width="2" height="4"/>
		<rect x="46" y="49" display="none" fill="#697DB4" width="2" height="4"/>
		<rect x="41" y="42" display="none" fill="#1F2565" width="3" height="7"/>
		<path display="none" fill="#697DB4" d="M41.851,25.58l1.514-0.757v2.271l-1.514,0.757V25.58z"/>
		<rect x="41" y="36" display="none" fill="#697DB4" width="3" height="4"/>
		<rect x="53" y="45" display="none" fill="#1F2565" width="3" height="5"/>
		<rect x="49" y="44" display="none" fill="#1F2565" width="2" height="5"/>
		<rect x="63" y="52" display="none" fill="#1F2565" width="2" height="7"/>
		<rect x="63" y="46" display="none" fill="#1F2565" width="2" height="4"/>
		<rect x="59" y="52" display="none" fill="#1F2565" width="2" height="7"/>
		<rect x="59" y="45" display="none" fill="#1F2565" width="2" height="5"/>
		<rect x="66" y="52" display="none" fill="#1F2565" width="3" height="7"/>
		<rect x="66" y="46" display="none" fill="#1F2565" width="3" height="4"/>
		<rect x="70" y="53" display="none" fill="#1F2565" width="3" height="6"/>
		<rect x="70" y="46" display="none" fill="#1F2565" width="3" height="4"/>
		<g>
			<rect x="34" y="52" display="none" fill="#1F2565" width="2" height="7"/>
			<rect x="38" y="51" display="none" fill="#1F2565" width="3" height="7"/>
			<rect x="34" y="45" display="none" fill="#1F2565" width="2" height="5"/>
			<rect x="38" y="44" display="none" fill="#1F2565" width="3" height="5"/>
			<rect x="25" y="52" display="none" fill="#1F2565" width="2" height="7"/>
			<rect x="25" y="46" display="none" fill="#1F2565" width="2" height="4"/>
			<rect x="28" y="52" display="none" fill="#1F2565" width="3" height="7"/>
			<rect x="28" y="45" display="none" fill="#1F2565" width="3" height="5"/>
			<rect x="21" y="52" display="none" fill="#1F2565" width="2" height="7"/>
			<rect x="21" y="46" display="none" fill="#1F2565" width="2" height="4"/>
			<rect x="17" y="53" display="none" fill="#1F2565" width="3" height="6"/>
			<rect x="17" y="46" display="none" fill="#1F2565" width="3" height="4"/>
		</g>
		<path display="none" fill="none" stroke="#1F4478" stroke-width="2" d="M44.879,58.884L14.603,57.37l-0.757-12.868
			c0,0,2.927-4.916,7.569-3.783c9.349-3.428,18.922-7.57,18.922-7.57V25.58l-1.514-3.784V15.74l3.785-3.784V7.415l3.027-5.298v4.542
			"/>
		<path display="none" fill="none" stroke="#1F4478" stroke-width="2" d="M44.879,58.884l30.275-1.514l-1.514-16.651l-24.221-7.57
			V25.58l1.514-3.784l-0.757-1.325v-3.69l0.757-1.041l-3.785-3.784V7.415l-3.027-5.298v4.542"/>
		<path display="none" fill="none" stroke="#697DB4" d="M44.122,8.928v49.199"/>
		<path display="none" fill="none" stroke="#212767" d="M22.171,41.238v16.889"/>
		<path display="none" fill="none" stroke="#1F4478" stroke-width="2" d="M39.58,23.31l5.299-1.514l5.298,1.514"/>
		<path id="Elipse4" display="none" fill="none" stroke="#1F2565" d="M45.851,17.366c0-1.113,1.019-1.724,1.406-1.613
			s1.406,1.306,1.406,2.419s-1.019,1.724-1.406,1.613S45.851,18.479,45.851,17.366z"/>
		<path id="Elipse5" display="none" fill="none" stroke="#1F2565" d="M40.337,19.02c0-1.101,1.006-2.571,1.391-2.791
			c0.384-0.22,1.39,0.095,1.39,1.196s-1.006,2.57-1.39,2.791C41.343,20.436,40.337,20.121,40.337,19.02z"/>
		<path display="none" fill="#212767" stroke="#1F4478" stroke-width="2" d="M14.603,45.26l7.569-0.758l18.166-6.055v-4.541
			c0,0-16.628,6.992-17.409,6.813c-0.78-0.182-4.541,0-4.541,0L14.603,45.26z"/>
		<path display="none" fill="#697DB4" stroke="#697DB4" d="M27.47,44.502l-1.514-2.27l-0.757,2.27H27.47z"/>
		<path display="none" fill="#697DB4" stroke="#697DB4" d="M19.901,45.26l-1.514-2.271L17.63,45.26H19.901z"/>
		<path display="none" fill="#697DB4" stroke="#697DB4" d="M31.254,42.988l-1.514-2.27l-0.757,2.27H31.254z"/>
		<path display="none" fill="#697DB4" stroke="#697DB4" d="M35.796,41.475l-1.514-2.27l-0.757,2.27H35.796z"/>
		<path display="none" fill="#697DB4" stroke="#697DB4" d="M39.58,39.961l-1.514-2.271l-0.757,2.271H39.58z"/>
		<path display="none" fill="#212767" stroke="#1F4478" stroke-width="2" d="M50.177,38.447v-4.541l20.437,6.055l1.514,3.027
			L50.177,38.447z"/>
		<path display="none" fill="none" stroke="#1F4478" stroke-width="2" d="M40.337,24.066v34.061"/>
		<path display="none" fill="#697DB4" stroke="#697DB4" d="M52.447,39.961l-1.514-2.271l-0.757,2.271H52.447z"/>
		<path display="none" fill="none" stroke="#212767" stroke-width="2" d="M49.42,23.31v34.817"/>
		<path display="none" fill="#697DB4" stroke="#697DB4" d="M56.232,40.719l-1.514-2.271l-0.758,2.271H56.232z"/>
		<path display="none" fill="#697DB4" stroke="#697DB4" d="M60.017,41.475l-1.515-2.27l-0.756,2.27H60.017z"/>
		<path display="none" fill="#697DB4" stroke="#697DB4" d="M63.801,42.232l-1.514-2.271l-0.757,2.271H63.801z"/>
		<path display="none" fill="#697DB4" stroke="#697DB4" d="M67.586,42.988l-1.514-2.27l-0.758,2.27H67.586z"/>
		<path display="none" fill="#697DB4" stroke="#697DB4" d="M71.37,43.746l-1.515-2.271L69.1,43.746H71.37z"/>
		<path display="none" fill="#697DB4" d="M41.094,58.127l0.5-3.237l3.552,0.273l3.415-0.273l-0.063,3.062l-3.53,0.558L41.094,58.127
			z"/>
		<path display="none" fill="none" stroke="#697DB4" d="M16.873,51.314h3.028"/>
		<path display="none" fill="none" stroke="#697DB4" d="M23.685,50.558h3.028"/>
		<path display="none" fill="none" stroke="#697DB4" d="M27.47,49.801h3.028"/>
		<path display="none" fill="none" stroke="#697DB4" d="M32.768,49.801h3.028"/>
		<path display="none" fill="none" stroke="#697DB4" d="M53.204,49.801h3.028"/>
		<path display="none" fill="none" stroke="#697DB4" d="M58.502,50.558h3.028"/>
		<path display="none" fill="none" stroke="#697DB4" d="M61.53,50.558h3.028"/>
		<path display="none" fill="none" stroke="#697DB4" d="M66.072,51.314H69.1"/>
		<path display="none" fill="none" stroke="#697DB4" d="M69.1,51.314h3.027"/>
	</g>
	<g>
		<rect x="26" y="29" opacity="0.502" fill="#B4BED9" enable-background="new    " width="12" height="15"/>
		<path opacity="0.502" fill="#B4BED9" enable-background="new    " d="M39,37l17,6v8l-10-7l-7-2V37z"/>
		<g>
			<path fill="#1F2565" d="M65.191,27.006c-0.369-0.533-1.104-0.667-1.638-0.3c-0.536,0.368-0.671,1.098-0.302,1.631
				c1.566,2.261,2.393,4.989,2.393,7.887c0,2.887-0.865,5.711-2.436,7.951c-0.373,0.53-0.242,1.262,0.291,1.633
				c0.205,0.143,0.44,0.211,0.673,0.211c0.372,0,0.737-0.175,0.966-0.501C67.012,42.851,68,39.637,68,36.225
				C68,32.849,67.028,29.661,65.191,27.006z"/>
			<path fill="#1F2565" d="M61.322,30.319c-0.369-0.533-1.104-0.667-1.639-0.3s-0.67,1.098-0.301,1.631
				c0.909,1.313,1.39,2.899,1.39,4.588c0,1.682-0.503,3.324-1.415,4.624c-0.372,0.531-0.242,1.263,0.291,1.633
				c0.205,0.143,0.44,0.212,0.674,0.212c0.371,0,0.736-0.175,0.966-0.502c1.204-1.715,1.839-3.778,1.839-5.967
				C63.127,34.072,62.503,32.025,61.322,30.319z"/>
			<path fill="#1F2565" d="M56.678,18c-0.584,0-1.123,0.323-1.6,0.958c-0.039,0.051-3.973,5.092-13.788,8.105
				c-0.932,0.286-1.962,0.488-1.972,0.49c-0.233,0.045-0.458,0.118-0.672,0.213c-0.413-0.679-1.16-1.135-2.013-1.135h-9.907
				c-1.298,0-2.355,1.052-2.355,2.345v1.287c-0.165-0.026-0.334-0.04-0.508-0.04c-1.579,0-2.863,1.117-2.863,2.489v6.483
				c0,1.372,1.284,2.489,2.863,2.489c0.174,0,0.343-0.014,0.508-0.039v1.052c0,1.294,1.057,2.346,2.355,2.346h0.318l2.99,12.349
				C30.388,58.855,31.849,60,33.358,60h3.164c0.826,0,1.574-0.346,2.051-0.949s0.64-1.408,0.446-2.208l-2.857-11.799h0.47
				c0.854,0,1.601-0.457,2.014-1.136c0.214,0.096,0.438,0.168,0.671,0.213c0.011,0.002,1.041,0.204,1.972,0.49
				c9.816,3.021,13.75,8.057,13.786,8.104c0.479,0.637,1.019,0.961,1.603,0.961l0,0c0.576,0,1.08-0.326,1.348-0.871
				c0.154-0.313,0.229-0.688,0.229-1.145V20.015C58.254,18.057,56.839,18,56.678,18z M23.863,39.341c-0.29,0-0.463-0.12-0.508-0.176
				v-6.421c0.045-0.056,0.218-0.176,0.508-0.176c0.29,0,0.463,0.12,0.508,0.176v6.421C24.326,39.221,24.153,39.341,23.863,39.341z
				 M36.73,57.393c0.025,0.105,0.015,0.18-0.006,0.207c-0.022,0.027-0.092,0.056-0.201,0.056h-3.164
				c-0.431,0-0.934-0.396-1.035-0.813l-2.856-11.799h4.274L36.73,57.393z M26.726,42.698v-3.502v-6.483v-3.736h9.907v1.822
				c0,0,0,0,0,0.001v10.075c0,0.002,0,0.004,0,0.008v1.815H26.726z M55.9,50.135c-1.836-1.828-6.161-5.378-13.916-7.764
				c-1.055-0.324-2.168-0.543-2.215-0.552c-0.402-0.078-0.782-0.537-0.782-0.945V30.8c0-0.408,0.38-0.867,0.782-0.945
				c0.047-0.009,1.16-0.227,2.214-0.551c7.753-2.38,12.081-5.932,13.917-7.761V50.135z"/>
		</g>
	</g>
</g>
<path fill="none" d="z"/>
</svg>
