<?xml version="1.0" encoding="utf-8"?>
<!-- Generator: Adobe Illustrator 15.0.0, SVG Export Plug-In . SVG Version: 6.00 Build 0)  -->
<!DOCTYPE svg PUBLIC "-//W3C//DTD SVG 1.1//EN" "http://www.w3.org/Graphics/SVG/1.1/DTD/svg11.dtd">
<svg version="1.1" id="Layer_1" xmlns="http://www.w3.org/2000/svg" xmlns:xlink="http://www.w3.org/1999/xlink" x="0px" y="0px"
	 width="102px" height="33px" viewBox="0 0 102 33" enable-background="new 0 0 102 33" xml:space="preserve">
<g>
	<path fill="#FFFFFF" d="M97.268,17.807l-0.055,0.074l0.08,0.014L97.268,17.807z M96.966,17.707l-0.122,0.149h0.133L96.966,17.707z"
		/>
	<polygon fill="#FFFFFF" points="12.681,27.799 14.794,30.846 14.954,30.849 17.071,27.799 17.831,27.797 15.329,31.417 
		14.432,31.417 11.922,27.797 	"/>
	<path fill="#FFFFFF" d="M24.206,29.651H21.7c-0.404,0-0.677,0.042-0.818,0.125c-0.142,0.083-0.212,0.217-0.212,0.403v0.263
		c0,0.172,0.076,0.303,0.23,0.393c0.153,0.091,0.42,0.135,0.8,0.135h2.505c0.367,0,0.632-0.051,0.791-0.153
		c0.16-0.102,0.239-0.271,0.239-0.506C25.236,29.872,24.893,29.651,24.206,29.651 M21.452,29.204h2.917
		c0.247,0,0.444,0.027,0.592,0.085c0.147,0.056,0.238,0.128,0.274,0.215v-0.513c0-0.225-0.087-0.399-0.261-0.527
		c-0.199-0.146-0.497-0.22-0.894-0.22h-1.985c-0.385,0-0.676,0.047-0.871,0.139c-0.195,0.094-0.293,0.218-0.293,0.374v0.088h-0.707
		v-0.088c0-0.298,0.148-0.531,0.444-0.702c0.296-0.172,0.712-0.258,1.25-0.258h2.248c0.616,0,1.072,0.115,1.368,0.345
		c0.272,0.21,0.408,0.521,0.408,0.931v2.345h-0.688v-0.286c-0.097,0.089-0.211,0.158-0.344,0.21
		c-0.133,0.051-0.302,0.076-0.506,0.076h-2.985c-0.959,0-1.438-0.308-1.438-0.923v-0.439c0-0.259,0.114-0.462,0.343-0.609
		C20.576,29.285,20.953,29.204,21.452,29.204"/>
	<rect x="29.097" y="26.324" fill="#FFFFFF" width="0.689" height="5.093"/>
	<path fill="#FFFFFF" d="M36.766,28.237h-2.153c-0.35,0-0.636,0.082-0.858,0.249c-0.224,0.166-0.334,0.384-0.334,0.651h4.612
		c0-0.263-0.114-0.479-0.339-0.647C37.467,28.321,37.159,28.237,36.766,28.237 M34.743,31.417c-1.341,0-2.012-0.452-2.012-1.355
		v-0.864c0-0.392,0.169-0.719,0.508-0.982c0.368-0.288,0.864-0.433,1.486-0.433h1.976c0.646,0,1.151,0.128,1.513,0.382
		c0.339,0.234,0.508,0.531,0.508,0.893v0.528H33.42v0.411c0,0.347,0.123,0.601,0.371,0.762c0.218,0.142,0.529,0.212,0.934,0.212
		h2.238c0.356,0,0.624-0.06,0.802-0.18c0.178-0.119,0.268-0.272,0.268-0.457V30.26h0.688v0.073c0,0.278-0.115,0.516-0.344,0.711
		c-0.296,0.249-0.741,0.373-1.333,0.373H34.743z"/>
	<path fill="#FFFFFF" d="M45.345,27.797c0.717,0,1.25,0.151,1.6,0.455c0.301,0.259,0.453,0.613,0.453,1.063v2.103h-0.689v-2.184
		c0-0.313-0.125-0.556-0.375-0.729c-0.25-0.173-0.581-0.26-0.991-0.26h-1.8c-0.411,0-0.744,0.091-1,0.271
		c-0.256,0.181-0.384,0.421-0.384,0.719v2.184h-0.688v-3.62h0.688v0.586c0.115-0.194,0.282-0.341,0.502-0.439
		c0.22-0.098,0.513-0.146,0.882-0.146H45.345z"/>
	<path fill="#FFFFFF" d="M55.386,30.135h0.688c0,0.381-0.137,0.679-0.408,0.895c-0.332,0.259-0.861,0.388-1.585,0.388h-2.112
		c-0.635,0-1.108-0.117-1.422-0.352s-0.471-0.564-0.471-0.989v-0.901c0-0.416,0.156-0.744,0.471-0.989
		c0.345-0.27,0.837-0.403,1.477-0.403h2.058c0.651,0,1.147,0.111,1.485,0.334c0.338,0.222,0.508,0.539,0.508,0.949h-0.688
		c0-0.264-0.097-0.465-0.29-0.602c-0.212-0.151-0.551-0.227-1.015-0.227h-2.058c-0.405,0-0.716,0.077-0.934,0.231
		c-0.217,0.153-0.326,0.389-0.326,0.706v0.901c0,0.278,0.121,0.5,0.362,0.667c0.224,0.151,0.504,0.227,0.843,0.227h2.112
		C54.951,30.97,55.386,30.692,55.386,30.135"/>
	<path fill="#FFFFFF" d="M59.625,26.853h-0.688v-0.528h0.688V26.853z M59.625,31.417h-0.688v-3.62h0.688V31.417z"/>
	<path fill="#FFFFFF" d="M66.686,29.651h-2.505c-0.404,0-0.677,0.042-0.818,0.125s-0.214,0.217-0.214,0.403v0.263
		c0,0.172,0.078,0.303,0.231,0.393c0.153,0.091,0.421,0.135,0.801,0.135h2.505c0.368,0,0.632-0.051,0.792-0.153
		c0.159-0.102,0.239-0.271,0.239-0.506C67.717,29.872,67.373,29.651,66.686,29.651 M63.934,29.204h2.916
		c0.247,0,0.443,0.027,0.592,0.085c0.147,0.056,0.239,0.128,0.275,0.215v-0.513c0-0.225-0.087-0.399-0.262-0.527
		c-0.198-0.146-0.496-0.22-0.894-0.22h-1.985c-0.385,0-0.674,0.047-0.87,0.139c-0.196,0.094-0.294,0.218-0.294,0.374v0.088h-0.707
		v-0.088c0-0.298,0.148-0.531,0.443-0.702c0.297-0.172,0.714-0.258,1.252-0.258h2.247c0.615,0,1.072,0.115,1.368,0.345
		c0.272,0.21,0.408,0.521,0.408,0.931v2.345h-0.688v-0.286c-0.097,0.089-0.212,0.158-0.344,0.21
		c-0.134,0.051-0.302,0.076-0.507,0.076h-2.986c-0.959,0-1.438-0.308-1.438-0.923v-0.439c0-0.259,0.114-0.462,0.344-0.609
		C63.057,29.285,63.434,29.204,63.934,29.204"/>
	<path fill="#FFFFFF" d="M71.877,29.998c0,0.648,0.474,0.972,1.423,0.972h1.73c0.453,0,0.798-0.072,1.033-0.219
		c0.26-0.161,0.39-0.412,0.39-0.753v-0.797c0-0.312-0.122-0.55-0.367-0.716s-0.597-0.248-1.056-0.248H73.3
		c-0.478,0-0.834,0.075-1.069,0.227s-0.354,0.398-0.354,0.744V29.998z M73.242,27.782h1.854c0.725,0,1.258,0.145,1.602,0.432
		c0.296,0.244,0.443,0.575,0.443,0.994v0.791c0,0.419-0.15,0.751-0.452,0.994c-0.35,0.282-0.881,0.424-1.593,0.424h-1.854
		c-0.565,0-1.01-0.107-1.329-0.322v1.796h-0.689v-5.108h0.689v0.337c0.15-0.107,0.337-0.19,0.562-0.249
		C72.696,27.813,72.954,27.782,73.242,27.782"/>
	<path fill="#FFFFFF" d="M80.419,29.998c0,0.648,0.475,0.972,1.426,0.972h1.77c0.454,0,0.8-0.072,1.035-0.219
		c0.261-0.161,0.391-0.412,0.391-0.753v-0.797c0-0.312-0.123-0.55-0.368-0.716s-0.598-0.248-1.058-0.248h-1.77
		c-0.484,0-0.843,0.075-1.077,0.227c-0.232,0.151-0.349,0.398-0.349,0.744V29.998z M81.787,27.782h1.894
		c0.726,0,1.26,0.145,1.604,0.432c0.295,0.244,0.444,0.575,0.444,0.994v0.791c0,0.419-0.151,0.751-0.454,0.994
		c-0.351,0.282-0.881,0.424-1.595,0.424h-1.894c-1.372,0-2.058-0.473-2.058-1.418v-0.791c0-0.438,0.157-0.779,0.472-1.023
		C80.546,27.916,81.073,27.782,81.787,27.782"/>
	<path fill="#FFFFFF" d="M90.505,27.782h1.818c0.725,0,1.258,0.145,1.602,0.433c0.296,0.244,0.443,0.577,0.443,0.997H93.68
		c0-0.317-0.12-0.56-0.361-0.726c-0.242-0.167-0.595-0.249-1.06-0.249h-1.69c-0.482,0-0.84,0.075-1.072,0.227
		c-0.231,0.151-0.348,0.401-0.348,0.748v2.205H88.46v-3.635h0.688v0.462c0.103-0.151,0.261-0.267,0.475-0.344
		C89.838,27.822,90.132,27.782,90.505,27.782"/>
	<path fill="#FFFFFF" d="M98.893,30.97h1.293c0.355,0,0.62-0.063,0.795-0.189c0.133-0.098,0.198-0.208,0.198-0.33h0.743
		c0,0.244-0.124,0.456-0.371,0.638c-0.302,0.219-0.737,0.329-1.305,0.329h-1.359c-0.538,0-0.949-0.107-1.232-0.322
		c-0.303-0.229-0.453-0.572-0.453-1.026v-1.743h-0.59v-0.528h0.59v-0.696h0.688v0.696h3.534v0.528H97.89v1.81
		c0,0.284,0.092,0.494,0.275,0.631C98.349,30.901,98.592,30.97,98.893,30.97"/>
	<path fill="#FFFFFF" d="M11.959,17.847c0,0,44.48-16.693,55.524-3.443c11.045,13.25-3.214,13.308,20.757-1.095
		c23.972-14.401,8.764,4.585,8.764,4.585"/>
</g>
</svg>
